#!OML:ASF I:\golf\golf\golf 2\Subject 1\2002-09-07\Subject1.ASF
:FULLY-SPECIFIED
:DEGREES
96
root -8.87584 17.9315 5.66933 -25.0716 83.8373 -39.3854
lowerback 5.52011 0.73415 0.263999
upperback 5.58213 1.1313 4.52473
thorax 2.58652 0.576056 4.50592
lowerneck -11.1678 0.390747 2.80608
upperneck 44.1684 5.232 -5.61044
head 18.9696 2.5858 -2.0111
rclavicle -9.54166e-015 -1.90833e-014
rhumerus -20.0376 44.9688 -99.8231
rradius 55.103
rwrist -64.2781
rhand -38.6659 -17.8196
rfingers 7.12502
rthumb -11.6815 -47.4739
lclavicle -9.54166e-015 -1.90833e-014
lhumerus -17.4484 -47.669 106.751
lradius 52.9688
lwrist 65.4268
lhand -13.0108 65.1859
lfingers 7.12502
lthumb -166.917 85.2445
rfemur -29.0546 -0.642286 15.4183
rtibia 27.6746
rfoot -7.65374 -3.4189
rtoes -4.36554
lfemur -27.3311 4.14192 -9.5408
ltibia 28.2562
lfoot -11.6348 -2.22174
ltoes -17.8326
97
root -8.87748 17.9321 5.66805 -25.8345 83.7844 -40.1424
lowerback 5.5426 0.73667 0.349485
upperback 5.57976 1.13922 4.55473
thorax 2.57185 0.58308 4.48819
lowerneck -11.2208 0.374094 2.79219
upperneck 44.2073 5.21695 -5.6121
head 19.0087 2.57706 -2.01273
rclavicle -3.18055e-015 -1.51076e-014
rhumerus -20.0454 44.9526 -99.8376
rradius 55.096
rwrist -64.2696
rhand -38.7138 -17.9594
rfingers 7.12502
rthumb -11.7277 -47.6111
lclavicle -3.18055e-015 -1.51076e-014
lhumerus -17.4675 -47.6859 106.765
lradius 52.9543
lwrist 65.3094
lhand -12.8593 65.023
lfingers 7.12502
lthumb -166.771 85.4168
rfemur -29.047 -0.681178 15.5508
rtibia 27.6484
rfoot -7.53848 -3.40919
rtoes -5.60797
lfemur -27.3286 4.16569 -9.43038
ltibia 28.2928
lfoot -11.5959 -2.31952
ltoes -16.2494
98
root -8.87822 17.931 5.66922 -25.8791 83.7624 -40.2222
lowerback 5.49906 0.740312 0.314593
upperback 5.57432 1.1414 4.57665
thorax 2.58946 0.582366 4.53162
lowerneck -11.2587 0.374828 2.77341
upperneck 44.2395 5.23492 -5.62261
head 19.0424 2.57965 -2.01159
rclavicle -5.1684e-015 3.18055e-015
rhumerus -20.0509 45.008 -99.8142
rradius 55.1315
rwrist -64.3447
rhand -39.4555 -17.4638
rfingers 7.12502
rthumb -12.4428 -47.0735
lclavicle -5.1684e-015 3.18055e-015
lhumerus -17.4673 -47.684 106.756
lradius 53.0285
lwrist 65.453
lhand -13.1313 65.5401
lfingers 7.12502
lthumb -167.033 84.8828
rfemur -29.0738 -0.640546 15.5583
rtibia 27.6206
rfoot -7.51934 -3.37898
rtoes -4.70308
lfemur -27.3859 4.2461 -9.4218
ltibia 28.3247
lfoot -11.6031 -2.36459
ltoes -16.3228
99
root -8.87885 17.9325 5.66972 -25.1788 83.7935 -39.5334
lowerback 5.47217 0.732333 0.239912
upperback 5.57111 1.12638 4.54377
thorax 2.60152 0.572132 4.54038
lowerneck -11.2512 0.391661 2.75891
upperneck 44.2437 5.26332 -5.61277
head 19.0445 2.58967 -1.99903
rclavicle -2.0276e-014 -1.27222e-014
rhumerus -20.0339 45.0686 -99.8199
rradius 55.1129
rwrist -64.3983
rhand -38.8964 -18.0218
rfingers 7.12502
rthumb -11.9038 -47.6634
lclavicle -2.0276e-014 -1.27222e-014
lhumerus -17.4766 -47.6818 106.723
lradius 53.1072
lwrist 65.675
lhand -13.4676 65.9574
lfingers 7.12502
lthumb -167.358 84.4452
rfemur -29.078 -0.583381 15.4401
rtibia 27.6124
rfoot -7.59414 -3.35
rtoes -2.99349
lfemur -27.4042 4.20312 -9.50502
ltibia 28.3303
lfoot -11.5878 -2.28284
ltoes -16.5008
100
root -8.87946 17.9339 5.66869 -24.3735 83.8445 -38.7235
lowerback 5.45882 0.726377 0.231546
upperback 5.5744 1.11638 4.46107
thorax 2.61406 0.567276 4.45892
lowerneck -11.2315 0.405765 2.79407
upperneck 44.222 5.25479 -5.58058
head 19.023 2.59535 -1.99122
rclavicle -3.97569e-015 2.06736e-014
rhumerus -19.9659 45.0419 -99.8667
rradius 55.0581
rwrist -64.4324
rhand -38.9181 -18.043
rfingers 7.12502
rthumb -11.9247 -47.6834
lclavicle -3.97569e-015 2.06736e-014
lhumerus -17.4417 -47.6656 106.655
lradius 53.0071
lwrist 65.5003
lhand -13.1744 65.3676
lfingers 7.12502
lthumb -167.075 85.0527
rfemur -29.0769 -0.595553 15.3178
rtibia 27.6201
rfoot -7.64007 -3.34057
rtoes -2.36413
lfemur -27.3898 4.12122 -9.60618
ltibia 28.3078
lfoot -11.5627 -2.2284
ltoes -16.2774
101
root -8.88034 17.9341 5.66756 -24.1169 83.8533 -38.5033
lowerback 5.41443 0.734244 0.248131
upperback 5.56905 1.12527 4.42376
thorax 2.63328 0.572201 4.41073
lowerneck -11.2462 0.409054 2.82585
upperneck 44.2266 5.23099 -5.54084
head 19.0267 2.59544 -1.98226
rclavicle -2.10712e-014 0
rhumerus -19.912 44.9891 -99.8774
rradius 55.0431
rwrist -64.4376
rhand -38.7254 -18.3579
rfingers 7.12502
rthumb -11.7389 -48.009
lclavicle -2.10712e-014 0
lhumerus -17.3996 -47.6613 106.607
lradius 52.9198
lwrist 65.292
lhand -12.7674 64.8608
lfingers 7.12502
lthumb -166.683 85.5847
rfemur -29.1293 -0.594106 15.275
rtibia 27.6354
rfoot -7.67176 -3.34441
rtoes -1.84931
lfemur -27.4175 4.12307 -9.6354
ltibia 28.275
lfoot -11.5327 -2.25943
ltoes -16.0352
102
root -8.88142 17.9347 5.66656 -24.329 83.8403 -38.7291
lowerback 5.39378 0.729687 0.243002
upperback 5.57788 1.11865 4.44651
thorax 2.65416 0.568306 4.43833
lowerneck -11.2775 0.410985 2.81808
upperneck 44.2414 5.23173 -5.52973
head 19.0446 2.59491 -1.97556
rclavicle -1.31198e-014 -2.46493e-014
rhumerus -19.8705 45.0237 -99.8246
rradius 55.0337
rwrist -64.4112
rhand -38.7096 -18.3155
rfingers 7.12502
rthumb -11.7236 -47.9674
lclavicle -1.31198e-014 -2.46493e-014
lhumerus -17.3671 -47.6775 106.583
lradius 52.9573
lwrist 65.3904
lhand -12.829 64.874
lfingers 7.12502
lthumb -166.742 85.5677
rfemur -29.1545 -0.587053 15.2936
rtibia 27.6556
rfoot -7.69421 -3.33413
rtoes -1.70139
lfemur -27.4249 4.12504 -9.61405
ltibia 28.2476
lfoot -11.5234 -2.24015
ltoes -16.4449
